<?xml version="1.0" encoding="UTF-8" standalone="no"?>
<!-- Created with Inkscape (http://www.inkscape.org/) -->

<svg
   width="19.912941mm"
   height="12.902725mm"
   viewBox="0 0 19.912941 12.902725"
   version="1.1"
   id="svg24513"
   xmlns:xlink="http://www.w3.org/1999/xlink"
   xmlns="http://www.w3.org/2000/svg"
   xmlns:svg="http://www.w3.org/2000/svg">
  <defs
     id="defs24510">
    <linearGradient
       xlink:href="#linearGradient23452"
       id="linearGradient23454"
       x1="54.273098"
       y1="83.523903"
       x2="54.045105"
       y2="105.8206"
       gradientUnits="userSpaceOnUse"
       gradientTransform="translate(59.142515,17.94188)" />
    <linearGradient
       id="linearGradient23452">
      <stop
         style="stop-color:#090909;stop-opacity:1;"
         offset="0"
         id="stop23448" />
      <stop
         style="stop-color:#090909;stop-opacity:0;"
         offset="1"
         id="stop23450" />
    </linearGradient>
  </defs>
  <g
     id="layer1"
     transform="translate(-102.38087,-100.65431)">
    <path
       style="fill:url(#linearGradient23454);fill-opacity:1;stroke:#d1ae00;stroke-width:0.3;stroke-linecap:round;stroke-linejoin:round;stroke-dasharray:none;stroke-dashoffset:0;stroke-opacity:1;paint-order:fill markers stroke"
       d="m 111.49271,107.47421 c 0.0643,-0.0944 0.19277,-0.28334 0.25346,-0.37441 0.0607,-0.0911 0.0539,-0.0846 0.0514,0.93412 -0.002,1.01872 -4.4e-4,3.04929 0.0225,4.0753 0.0229,1.02601 0.0665,1.04756 0.11064,1.0629 0.0441,0.0153 0.0886,0.0246 0.13206,0.0291 0.0434,0.005 0.0856,0.005 0.16952,-0.005 0.0839,-0.009 0.20956,-0.0285 0.35755,-0.058 0.14799,-0.0295 0.31832,-0.0696 0.48138,-0.13497 0.16306,-0.0653 0.31888,-0.15583 0.46323,-0.27305 0.14435,-0.11722 0.2773,-0.26119 0.41263,-0.41165 0.13532,-0.15047 0.27303,-0.30743 0.39162,-0.47511 0.11858,-0.16768 0.21805,-0.34609 0.3035,-0.52638 0.0854,-0.18029 0.15687,-0.36248 0.19529,-0.52558 0.0384,-0.16309 0.0438,-0.30716 0.044,-0.68426 2.6e-4,-0.3771 -0.005,-0.9872 0.002,-1.30188 0.007,-0.31468 0.0246,-0.33368 0.0588,-0.34285 0.0342,-0.009 0.0844,-0.008 0.82237,-0.007 0.73797,0.001 2.16371,0.003 2.88107,0.0136 0.71735,0.0108 0.72655,0.0306 0.72911,0.0517 0.003,0.0211 -0.001,0.0435 -0.005,0.79512 -0.004,0.75166 -0.007,2.23234 -9.3e-4,2.97712 0.006,0.74479 0.022,0.7537 0.0429,0.75626 0.0209,0.003 0.047,-0.001 0.12834,-7.6e-4 0.0813,3.2e-4 0.21784,0.005 0.35538,-0.008 0.13755,-0.0122 0.27622,-0.0409 0.41326,-0.0909 0.13705,-0.0501 0.27261,-0.12158 0.43242,-0.22611 0.1598,-0.10453 0.34391,-0.24211 0.54383,-0.4376 0.19992,-0.1955 0.4157,-0.44895 0.55286,-0.65285 0.13716,-0.20391 0.19574,-0.35842 0.22875,-0.56931 0.033,-0.21089 0.0404,-0.47826 0.0511,-2.15351 0.0107,-1.67524 0.0247,-4.75823 0.026,-6.31916 0.001,-1.56094 -0.01,-1.59975 -0.0282,-1.63235 -0.0182,-0.0326 -0.0432,-0.0589 -0.0706,-0.0842 -0.0274,-0.0253 -0.0572,-0.0495 -0.1026,-0.0621 -0.0454,-0.0126 -0.10649,-0.0132 -0.20321,0.0133 -0.0967,0.0266 -0.22896,0.0804 -0.36783,0.1499 -0.13887,0.0695 -0.2843,0.15458 -0.41392,0.23966 -0.12963,0.0851 -0.24337,0.1701 -0.3474,0.25029 -0.10402,0.0802 -0.19822,0.15544 -0.30501,0.25548 -0.10679,0.10003 -0.22608,0.22475 -0.34597,0.36158 -0.11989,0.13683 -0.24037,0.28575 -0.33013,0.4065 -0.0898,0.12074 -0.14875,0.21317 -0.1826,0.28231 -0.0339,0.0691 -0.0426,0.11502 -0.048,0.59124 -0.005,0.47621 -0.007,1.38277 -0.0194,1.83526 -0.0121,0.4525 -0.0346,0.45116 -0.0598,0.45114 -0.0251,-1e-5 -0.053,0.001 -0.80705,0.002 -0.75401,7.1e-4 -2.23417,7.8e-4 -2.98811,-0.001 -0.75395,-0.002 -0.78154,-0.006 -0.80799,-0.0203 -0.0264,-0.0147 -0.0517,-0.0408 -0.0604,-0.84195 -0.009,-0.80118 -4.6e-4,-2.37745 -0.004,-3.16655 -0.003,-0.78909 -0.0179,-0.79076 -0.0624,-0.78935 -0.0445,0.001 -0.11881,0.006 -0.24283,0.0386 -0.12402,0.0327 -0.29767,0.0935 -0.47685,0.17668 -0.17919,0.0831 -0.3638,0.1885 -0.54402,0.32158 -0.18022,0.13307 -0.35594,0.29378 -0.57478,0.52108 -0.21883,0.22731 -0.48073,0.52115 -0.75011,0.83614 -0.26937,0.31499 -0.54621,0.65113 -1.08501,1.28745 -0.5388,0.63631 -1.33951,1.57278 -1.76213,2.06063 -0.42263,0.48786 -0.46717,0.52712 -0.5066,0.54451 -0.0394,0.0174 -0.0742,0.0129 -0.10913,-0.0185 -0.0349,-0.0314 -0.07,-0.09 -0.74479,-0.89948 -0.67477,-0.80952 -1.98924,-2.36992 -2.7037,-3.21 -0.71445,-0.84009 -0.82886,-0.9598 -0.9178,-1.04326 -0.0889,-0.0835 -0.15232,-0.13055 -0.207,-0.16315 -0.0547,-0.0326 -0.10067,-0.0506 -0.15752,-0.0782 -0.0569,-0.0276 -0.12462,-0.0648 -0.19444,-0.0914 -0.0698,-0.0266 -0.14178,-0.0424 -0.22033,-0.0513 -0.0786,-0.009 -0.16381,-0.0109 -0.25034,-0.0137 -0.0865,-0.003 -0.17442,-0.006 -0.27621,-0.007 -0.10179,-6.1e-4 -0.21749,0.002 -0.27632,0.0171 -0.0588,0.0154 -0.0605,0.0437 -0.0569,0.49937 0.004,0.45566 0.0125,1.33857 0.017,1.80975 0.004,0.47118 0.004,0.53052 0.0113,0.58781 0.007,0.0573 0.0206,0.11249 0.0414,0.15875 0.0208,0.0462 0.0486,0.0836 0.93607,1.12019 0.88744,1.03655 2.63443,3.07223 3.56421,4.15442 0.92977,1.08219 1.04228,1.21083 1.13563,1.30851 0.0934,0.0977 0.16742,0.16433 0.23141,0.2055 0.064,0.0412 0.11772,0.057 0.16505,0.0491 0.0473,-0.008 0.0884,-0.0391 0.17282,-0.13482 0.0845,-0.0957 0.21231,-0.2558 0.65618,-0.8082 0.44386,-0.55239 1.20373,-1.49706 1.58367,-1.96942 0.37995,-0.47235 0.38077,-0.47236 0.44501,-0.56679 z"
       id="path23412-7" />
    <g
       id="g13975-4-9-0"
       style="fill:#ffcc00;stroke-width:1.18902"
       transform="matrix(0.83257128,-0.02001362,0.02041053,0.84908243,-52.888885,69.583365)">
      <g
         id="g13115-70-7-3-1-4"
         transform="matrix(0.04651819,0,0,0.0456115,198.00754,47.579252)"
         style="fill:#ffcc00;stroke-width:25.8132">
        <path
           style="fill:#ffcc00;fill-opacity:1;stroke:#b69100;stroke-width:0;stroke-linecap:round;stroke-linejoin:round;stroke-dasharray:none;stroke-dashoffset:0;stroke-opacity:1;paint-order:fill markers stroke"
           d="m 177.88384,26.183146 0.0314,-2.075961 c 0,0 0.23405,-0.653288 0.35068,-0.980329 0.19518,-0.294624 0.3901,-0.589499 0.58475,-0.884645 0.35052,-0.308477 0.70078,-0.617207 1.05079,-0.926205 0.43474,-0.272201 0.86921,-0.544653 1.30342,-0.817375 1.57102,-0.893347 3.14166,-1.786922 4.7121,-2.68078 1.20025,-0.714999 2.40017,-1.430234 3.59987,-2.145749 0.3561,-0.181417 0.71194,-0.363091 1.06751,-0.545034 0.24855,-0.02297 0.49681,-0.04619 0.74483,-0.06968 0.29199,0.01183 0.58372,0.02341 0.87519,0.03471 0.30271,0.08947 0.60515,0.178681 0.90733,0.267624 0.71554,0.39838 1.43082,0.79648 2.14583,1.194324 2.60138,1.518922 5.20239,3.037522 7.80319,4.555884 0.30031,0.228931 0.60034,0.457589 0.90012,0.685985 0.14798,0.178771 0.29567,0.357272 0.4431,0.535511 0.12271,0.18047 0.24513,0.360667 0.36732,0.540602 0.1189,0.246121 0.23751,0.491967 0.35589,0.737553 0.037,0.237262 0.0737,0.47425 0.1102,0.710975 -0.003,2.787803 -0.006,5.575231 -0.01,8.36245 -5.19795,-1.620364 -5.33006,-1.648783 -5.31395,-1.669542 0.0161,-0.02077 -22.20304,-0.269449 -22.20304,-0.269449 z"
           id="path13070-9-9-03-9-8" />
        <path
           style="fill:#ffcc00;fill-opacity:1;stroke:#b69100;stroke-width:0;stroke-linecap:round;stroke-linejoin:round;stroke-dasharray:none;stroke-dashoffset:0;stroke-opacity:1;paint-order:fill markers stroke"
           d="m 205.11445,34.833856 -0.0163,2.076135 c 0,0 -0.22928,0.654978 -0.34352,0.982861 -0.19302,0.29604 -0.38579,0.59233 -0.57828,0.888888 -0.34826,0.311026 -0.69626,0.622303 -1.044,0.933847 -0.43275,0.275365 -0.86522,0.55098 -1.29742,0.826863 -1.56446,0.904785 -3.12854,1.809796 -4.69242,2.715088 -1.195,0.723737 -2.38967,1.447707 -3.58412,2.171956 -0.35477,0.184011 -0.70927,0.368276 -1.0635,0.552808 -0.24838,0.02478 -0.49646,0.04981 -0.74431,0.07511 -0.29206,-0.0097 -0.58387,-0.01915 -0.87542,-0.02832 -0.30335,-0.08726 -0.60643,-0.174261 -0.90925,-0.260997 -0.71843,-0.393149 -1.4366,-0.786019 -2.15449,-1.178636 -2.61239,-1.499902 -5.22441,-2.999485 -7.83622,-4.498831 -0.30198,-0.226734 -0.60367,-0.453197 -0.9051,-0.679399 -0.14928,-0.177687 -0.29827,-0.355106 -0.447,-0.532264 -0.12402,-0.17957 -0.24775,-0.358869 -0.37125,-0.537908 -0.1207,-0.245247 -0.2411,-0.490221 -0.36127,-0.734937 -0.0387,-0.236985 -0.0771,-0.473699 -0.11538,-0.710152 -0.0173,-2.78775 -0.0347,-5.575126 -0.051,-8.3623 5.20963,1.582397 5.34195,1.609851 5.32599,1.630727 -0.016,0.02089 22.20441,0.107449 22.20441,0.107449 z"
           id="path13070-6-36-20-0-6-0" />
      </g>
      <g
         id="g13944-9-9-4"
         style="fill:#ffcc00;stroke-width:1.18902"
         transform="translate(-0.21654424,0.22184364)">
        <g
           id="g13115-70-25-3-2"
           transform="matrix(0.04651819,0,0,0.0456115,199.15411,42.91126)"
           style="fill:#ffcc00;stroke-width:25.8132">
          <path
             style="fill:#ffcc00;fill-opacity:1;stroke:#b69100;stroke-width:0;stroke-linecap:round;stroke-linejoin:round;stroke-dasharray:none;stroke-dashoffset:0;stroke-opacity:1;paint-order:fill markers stroke"
             d="m 177.88384,26.183146 0.0314,-2.075961 c 0,0 0.23405,-0.653288 0.35068,-0.980329 0.19518,-0.294624 0.3901,-0.589499 0.58475,-0.884645 0.35052,-0.308477 0.70078,-0.617207 1.05079,-0.926205 0.43474,-0.272201 0.86921,-0.544653 1.30342,-0.817375 1.57102,-0.893347 3.14166,-1.786922 4.7121,-2.68078 1.20025,-0.714999 2.40017,-1.430234 3.59987,-2.145749 0.3561,-0.181417 0.71194,-0.363091 1.06751,-0.545034 0.24855,-0.02297 0.49681,-0.04619 0.74483,-0.06968 0.29199,0.01183 0.58372,0.02341 0.87519,0.03471 0.30271,0.08947 0.60515,0.178681 0.90733,0.267624 0.71554,0.39838 1.43082,0.79648 2.14583,1.194324 2.60138,1.518922 5.20239,3.037522 7.80319,4.555884 0.30031,0.228931 0.60034,0.457589 0.90012,0.685985 0.14798,0.178771 0.29567,0.357272 0.4431,0.535511 0.12271,0.18047 0.24513,0.360667 0.36732,0.540602 0.1189,0.246121 0.23751,0.491967 0.35589,0.737553 0.037,0.237262 0.0737,0.47425 0.1102,0.710975 -0.003,2.787803 -0.006,5.575231 -0.01,8.36245 -5.19795,-1.620364 -5.33006,-1.648783 -5.31395,-1.669542 0.0161,-0.02077 -22.20304,-0.269449 -22.20304,-0.269449 z"
             id="path13070-9-40-3-9" />
          <path
             style="fill:#ffcc00;fill-opacity:1;stroke:#b69100;stroke-width:0;stroke-linecap:round;stroke-linejoin:round;stroke-dasharray:none;stroke-dashoffset:0;stroke-opacity:1;paint-order:fill markers stroke"
             d="m 205.11445,34.833856 -0.0163,2.076135 c 0,0 -0.22928,0.654978 -0.34352,0.982861 -0.19302,0.29604 -0.38579,0.59233 -0.57828,0.888888 -0.34826,0.311026 -0.69626,0.622303 -1.044,0.933847 -0.43275,0.275365 -0.86522,0.55098 -1.29742,0.826863 -1.56446,0.904785 -3.12854,1.809796 -4.69242,2.715088 -1.195,0.723737 -2.38967,1.447707 -3.58412,2.171956 -0.35477,0.184011 -0.70927,0.368276 -1.0635,0.552808 -0.24838,0.02478 -0.49646,0.04981 -0.74431,0.07511 -0.29206,-0.0097 -0.58387,-0.01915 -0.87542,-0.02832 -0.30335,-0.08726 -0.60643,-0.174261 -0.90925,-0.260997 -0.71843,-0.393149 -1.4366,-0.786019 -2.15449,-1.178636 -2.61239,-1.499902 -5.22441,-2.999485 -7.83622,-4.498831 -0.30198,-0.226734 -0.60367,-0.453197 -0.9051,-0.679399 -0.14928,-0.177687 -0.29827,-0.355106 -0.447,-0.532264 -0.12402,-0.17957 -0.24775,-0.358869 -0.37125,-0.537908 -0.1207,-0.245247 -0.2411,-0.490221 -0.36127,-0.734937 -0.0387,-0.236985 -0.0771,-0.473699 -0.11538,-0.710152 -0.0173,-2.78775 -0.0347,-5.575126 -0.051,-8.3623 5.20963,1.582397 5.34195,1.609851 5.32599,1.630727 -0.016,0.02089 22.20441,0.107449 22.20441,0.107449 z"
             id="path13070-6-36-59-8-6" />
        </g>
        <g
           id="g13917-4-0-1"
           style="fill:#ffcc00;stroke-width:1.18902">
          <g
             id="g13115-70-0-69-5-0"
             transform="matrix(0.04651819,0,0,0.0456115,198.26176,44.424416)"
             style="fill:#ffcc00;stroke-width:25.8132">
            <path
               style="fill:#ffcc00;fill-opacity:1;stroke:#b69100;stroke-width:0;stroke-linecap:round;stroke-linejoin:round;stroke-dasharray:none;stroke-dashoffset:0;stroke-opacity:1;paint-order:fill markers stroke"
               d="m 177.88384,26.183146 0.0314,-2.075961 c 0,0 0.23405,-0.653288 0.35068,-0.980329 0.19518,-0.294624 0.3901,-0.589499 0.58475,-0.884645 0.35052,-0.308477 0.70078,-0.617207 1.05079,-0.926205 0.43474,-0.272201 0.86921,-0.544653 1.30342,-0.817375 1.57102,-0.893347 3.14166,-1.786922 4.7121,-2.68078 1.20025,-0.714999 2.40017,-1.430234 3.59987,-2.145749 0.3561,-0.181417 0.71194,-0.363091 1.06751,-0.545034 0.24855,-0.02297 0.49681,-0.04619 0.74483,-0.06968 0.29199,0.01183 0.58372,0.02341 0.87519,0.03471 0.30271,0.08947 0.60515,0.178681 0.90733,0.267624 0.71554,0.39838 1.43082,0.79648 2.14583,1.194324 2.60138,1.518922 5.20239,3.037522 7.80319,4.555884 0.30031,0.228931 0.60034,0.457589 0.90012,0.685985 0.14798,0.178771 0.29567,0.357272 0.4431,0.535511 0.12271,0.18047 0.24513,0.360667 0.36732,0.540602 0.1189,0.246121 0.23751,0.491967 0.35589,0.737553 0.037,0.237262 0.0737,0.47425 0.1102,0.710975 -0.003,2.787803 -0.006,5.575231 -0.01,8.36245 -5.19795,-1.620364 -5.33006,-1.648783 -5.31395,-1.669542 0.0161,-0.02077 -22.20304,-0.269449 -22.20304,-0.269449 z"
               id="path13070-9-6-2-6-4" />
            <path
               style="fill:#ffcc00;fill-opacity:1;stroke:#b69100;stroke-width:0;stroke-linecap:round;stroke-linejoin:round;stroke-dasharray:none;stroke-dashoffset:0;stroke-opacity:1;paint-order:fill markers stroke"
               d="m 205.11445,34.833856 -0.0163,2.076135 c 0,0 -0.22928,0.654978 -0.34352,0.982861 -0.19302,0.29604 -0.38579,0.59233 -0.57828,0.888888 -0.34826,0.311026 -0.69626,0.622303 -1.044,0.933847 -0.43275,0.275365 -0.86522,0.55098 -1.29742,0.826863 -1.56446,0.904785 -3.12854,1.809796 -4.69242,2.715088 -1.195,0.723737 -2.38967,1.447707 -3.58412,2.171956 -0.35477,0.184011 -0.70927,0.368276 -1.0635,0.552808 -0.24838,0.02478 -0.49646,0.04981 -0.74431,0.07511 -0.29206,-0.0097 -0.58387,-0.01915 -0.87542,-0.02832 -0.30335,-0.08726 -0.60643,-0.174261 -0.90925,-0.260997 -0.71843,-0.393149 -1.4366,-0.786019 -2.15449,-1.178636 -2.61239,-1.499902 -5.22441,-2.999485 -7.83622,-4.498831 -0.30198,-0.226734 -0.60367,-0.453197 -0.9051,-0.679399 -0.14928,-0.177687 -0.29827,-0.355106 -0.447,-0.532264 -0.12402,-0.17957 -0.24775,-0.358869 -0.37125,-0.537908 -0.1207,-0.245247 -0.2411,-0.490221 -0.36127,-0.734937 -0.0387,-0.236985 -0.0771,-0.473699 -0.11538,-0.710152 -0.0173,-2.78775 -0.0347,-5.575126 -0.051,-8.3623 5.20963,1.582397 5.34195,1.609851 5.32599,1.630727 -0.016,0.02089 22.20441,0.107449 22.20441,0.107449 z"
               id="path13070-6-36-2-2-6-2" />
          </g>
          <g
             id="g13115-70-6-47-4-2"
             transform="matrix(0.04651819,0,0,0.0456115,199.12626,45.87875)"
             style="fill:#ffcc00;stroke-width:25.8132">
            <path
               style="fill:#ffcc00;fill-opacity:1;stroke:#b69100;stroke-width:0;stroke-linecap:round;stroke-linejoin:round;stroke-dasharray:none;stroke-dashoffset:0;stroke-opacity:1;paint-order:fill markers stroke"
               d="m 177.88384,26.183146 0.0314,-2.075961 c 0,0 0.23405,-0.653288 0.35068,-0.980329 0.19518,-0.294624 0.3901,-0.589499 0.58475,-0.884645 0.35052,-0.308477 0.70078,-0.617207 1.05079,-0.926205 0.43474,-0.272201 0.86921,-0.544653 1.30342,-0.817375 1.57102,-0.893347 3.14166,-1.786922 4.7121,-2.68078 1.20025,-0.714999 2.40017,-1.430234 3.59987,-2.145749 0.3561,-0.181417 0.71194,-0.363091 1.06751,-0.545034 0.24855,-0.02297 0.49681,-0.04619 0.74483,-0.06968 0.29199,0.01183 0.58372,0.02341 0.87519,0.03471 0.30271,0.08947 0.60515,0.178681 0.90733,0.267624 0.71554,0.39838 1.43082,0.79648 2.14583,1.194324 2.60138,1.518922 5.20239,3.037522 7.80319,4.555884 0.30031,0.228931 0.60034,0.457589 0.90012,0.685985 0.14798,0.178771 0.29567,0.357272 0.4431,0.535511 0.12271,0.18047 0.24513,0.360667 0.36732,0.540602 0.1189,0.246121 0.23751,0.491967 0.35589,0.737553 0.037,0.237262 0.0737,0.47425 0.1102,0.710975 -0.003,2.787803 -0.006,5.575231 -0.01,8.36245 -5.19795,-1.620364 -5.33006,-1.648783 -5.31395,-1.669542 0.0161,-0.02077 -22.20304,-0.269449 -22.20304,-0.269449 z"
               id="path13070-9-1-7-0-2" />
            <path
               style="fill:#ffcc00;fill-opacity:1;stroke:#b69100;stroke-width:0;stroke-linecap:round;stroke-linejoin:round;stroke-dasharray:none;stroke-dashoffset:0;stroke-opacity:1;paint-order:fill markers stroke"
               d="m 205.11445,34.833856 -0.0163,2.076135 c 0,0 -0.22928,0.654978 -0.34352,0.982861 -0.19302,0.29604 -0.38579,0.59233 -0.57828,0.888888 -0.34826,0.311026 -0.69626,0.622303 -1.044,0.933847 -0.43275,0.275365 -0.86522,0.55098 -1.29742,0.826863 -1.56446,0.904785 -3.12854,1.809796 -4.69242,2.715088 -1.195,0.723737 -2.38967,1.447707 -3.58412,2.171956 -0.35477,0.184011 -0.70927,0.368276 -1.0635,0.552808 -0.24838,0.02478 -0.49646,0.04981 -0.74431,0.07511 -0.29206,-0.0097 -0.58387,-0.01915 -0.87542,-0.02832 -0.30335,-0.08726 -0.60643,-0.174261 -0.90925,-0.260997 -0.71843,-0.393149 -1.4366,-0.786019 -2.15449,-1.178636 -2.61239,-1.499902 -5.22441,-2.999485 -7.83622,-4.498831 -0.30198,-0.226734 -0.60367,-0.453197 -0.9051,-0.679399 -0.14928,-0.177687 -0.29827,-0.355106 -0.447,-0.532264 -0.12402,-0.17957 -0.24775,-0.358869 -0.37125,-0.537908 -0.1207,-0.245247 -0.2411,-0.490221 -0.36127,-0.734937 -0.0387,-0.236985 -0.0771,-0.473699 -0.11538,-0.710152 -0.0173,-2.78775 -0.0347,-5.575126 -0.051,-8.3623 5.20963,1.582397 5.34195,1.609851 5.32599,1.630727 -0.016,0.02089 22.20441,0.107449 22.20441,0.107449 z"
               id="path13070-6-36-8-5-0-0" />
          </g>
          <g
             id="g13115-70-2-4-4-5"
             transform="matrix(0.04651819,0,0,0.0456115,199.10234,48.80076)"
             style="fill:#ffcc00;stroke-width:25.8132">
            <path
               style="fill:#ffcc00;fill-opacity:1;stroke:#b69100;stroke-width:0;stroke-linecap:round;stroke-linejoin:round;stroke-dasharray:none;stroke-dashoffset:0;stroke-opacity:1;paint-order:fill markers stroke"
               d="m 177.88384,26.183146 0.0314,-2.075961 c 0,0 0.23405,-0.653288 0.35068,-0.980329 0.19518,-0.294624 0.3901,-0.589499 0.58475,-0.884645 0.35052,-0.308477 0.70078,-0.617207 1.05079,-0.926205 0.43474,-0.272201 0.86921,-0.544653 1.30342,-0.817375 1.57102,-0.893347 3.14166,-1.786922 4.7121,-2.68078 1.20025,-0.714999 2.40017,-1.430234 3.59987,-2.145749 0.3561,-0.181417 0.71194,-0.363091 1.06751,-0.545034 0.24855,-0.02297 0.49681,-0.04619 0.74483,-0.06968 0.29199,0.01183 0.58372,0.02341 0.87519,0.03471 0.30271,0.08947 0.60515,0.178681 0.90733,0.267624 0.71554,0.39838 1.43082,0.79648 2.14583,1.194324 2.60138,1.518922 5.20239,3.037522 7.80319,4.555884 0.30031,0.228931 0.60034,0.457589 0.90012,0.685985 0.14798,0.178771 0.29567,0.357272 0.4431,0.535511 0.12271,0.18047 0.24513,0.360667 0.36732,0.540602 0.1189,0.246121 0.23751,0.491967 0.35589,0.737553 0.037,0.237262 0.0737,0.47425 0.1102,0.710975 -0.003,2.787803 -0.006,5.575231 -0.01,8.36245 -5.19795,-1.620364 -5.33006,-1.648783 -5.31395,-1.669542 0.0161,-0.02077 -22.20304,-0.269449 -22.20304,-0.269449 z"
               id="path13070-9-3-8-6-5" />
            <path
               style="fill:#ffcc00;fill-opacity:1;stroke:#b69100;stroke-width:0;stroke-linecap:round;stroke-linejoin:round;stroke-dasharray:none;stroke-dashoffset:0;stroke-opacity:1;paint-order:fill markers stroke"
               d="m 205.11445,34.833856 -0.0163,2.076135 c 0,0 -0.22928,0.654978 -0.34352,0.982861 -0.19302,0.29604 -0.38579,0.59233 -0.57828,0.888888 -0.34826,0.311026 -0.69626,0.622303 -1.044,0.933847 -0.43275,0.275365 -0.86522,0.55098 -1.29742,0.826863 -1.56446,0.904785 -3.12854,1.809796 -4.69242,2.715088 -1.195,0.723737 -2.38967,1.447707 -3.58412,2.171956 -0.35477,0.184011 -0.70927,0.368276 -1.0635,0.552808 -0.24838,0.02478 -0.49646,0.04981 -0.74431,0.07511 -0.29206,-0.0097 -0.58387,-0.01915 -0.87542,-0.02832 -0.30335,-0.08726 -0.60643,-0.174261 -0.90925,-0.260997 -0.71843,-0.393149 -1.4366,-0.786019 -2.15449,-1.178636 -2.61239,-1.499902 -5.22441,-2.999485 -7.83622,-4.498831 -0.30198,-0.226734 -0.60367,-0.453197 -0.9051,-0.679399 -0.14928,-0.177687 -0.29827,-0.355106 -0.447,-0.532264 -0.12402,-0.17957 -0.24775,-0.358869 -0.37125,-0.537908 -0.1207,-0.245247 -0.2411,-0.490221 -0.36127,-0.734937 -0.0387,-0.236985 -0.0771,-0.473699 -0.11538,-0.710152 -0.0173,-2.78775 -0.0347,-5.575126 -0.051,-8.3623 5.20963,1.582397 5.34195,1.609851 5.32599,1.630727 -0.016,0.02089 22.20441,0.107449 22.20441,0.107449 z"
               id="path13070-6-36-7-1-2-2" />
          </g>
          <g
             id="g13115-70-5-2-6-9"
             transform="matrix(0.04651819,0,0,0.0456115,198.25003,50.401132)"
             style="fill:#ffcc00;stroke-width:25.8132">
            <path
               style="fill:#ffcc00;fill-opacity:1;stroke:#b69100;stroke-width:0;stroke-linecap:round;stroke-linejoin:round;stroke-dasharray:none;stroke-dashoffset:0;stroke-opacity:1;paint-order:fill markers stroke"
               d="m 177.88384,26.183146 0.0314,-2.075961 c 0,0 0.23405,-0.653288 0.35068,-0.980329 0.19518,-0.294624 0.3901,-0.589499 0.58475,-0.884645 0.35052,-0.308477 0.70078,-0.617207 1.05079,-0.926205 0.43474,-0.272201 0.86921,-0.544653 1.30342,-0.817375 1.57102,-0.893347 3.14166,-1.786922 4.7121,-2.68078 1.20025,-0.714999 2.40017,-1.430234 3.59987,-2.145749 0.3561,-0.181417 0.71194,-0.363091 1.06751,-0.545034 0.24855,-0.02297 0.49681,-0.04619 0.74483,-0.06968 0.29199,0.01183 0.58372,0.02341 0.87519,0.03471 0.30271,0.08947 0.60515,0.178681 0.90733,0.267624 0.71554,0.39838 1.43082,0.79648 2.14583,1.194324 2.60138,1.518922 5.20239,3.037522 7.80319,4.555884 0.30031,0.228931 0.60034,0.457589 0.90012,0.685985 0.14798,0.178771 0.29567,0.357272 0.4431,0.535511 0.12271,0.18047 0.24513,0.360667 0.36732,0.540602 0.1189,0.246121 0.23751,0.491967 0.35589,0.737553 0.037,0.237262 0.0737,0.47425 0.1102,0.710975 -0.003,2.787803 -0.006,5.575231 -0.01,8.36245 -5.19795,-1.620364 -5.33006,-1.648783 -5.31395,-1.669542 0.0161,-0.02077 -22.20304,-0.269449 -22.20304,-0.269449 z"
               id="path13070-9-92-8-7-0" />
            <path
               style="fill:#ffcc00;fill-opacity:1;stroke:#b69100;stroke-width:0;stroke-linecap:round;stroke-linejoin:round;stroke-dasharray:none;stroke-dashoffset:0;stroke-opacity:1;paint-order:fill markers stroke"
               d="m 205.11445,34.833856 -0.0163,2.076135 c 0,0 -0.22928,0.654978 -0.34352,0.982861 -0.19302,0.29604 -0.38579,0.59233 -0.57828,0.888888 -0.34826,0.311026 -0.69626,0.622303 -1.044,0.933847 -0.43275,0.275365 -0.86522,0.55098 -1.29742,0.826863 -1.56446,0.904785 -3.12854,1.809796 -4.69242,2.715088 -1.195,0.723737 -2.38967,1.447707 -3.58412,2.171956 -0.35477,0.184011 -0.70927,0.368276 -1.0635,0.552808 -0.24838,0.02478 -0.49646,0.04981 -0.74431,0.07511 -0.29206,-0.0097 -0.58387,-0.01915 -0.87542,-0.02832 -0.30335,-0.08726 -0.60643,-0.174261 -0.90925,-0.260997 -0.71843,-0.393149 -1.4366,-0.786019 -2.15449,-1.178636 -2.61239,-1.499902 -5.22441,-2.999485 -7.83622,-4.498831 -0.30198,-0.226734 -0.60367,-0.453197 -0.9051,-0.679399 -0.14928,-0.177687 -0.29827,-0.355106 -0.447,-0.532264 -0.12402,-0.17957 -0.24775,-0.358869 -0.37125,-0.537908 -0.1207,-0.245247 -0.2411,-0.490221 -0.36127,-0.734937 -0.0387,-0.236985 -0.0771,-0.473699 -0.11538,-0.710152 -0.0173,-2.78775 -0.0347,-5.575126 -0.051,-8.3623 5.20963,1.582397 5.34195,1.609851 5.32599,1.630727 -0.016,0.02089 22.20441,0.107449 22.20441,0.107449 z"
               id="path13070-6-36-28-9-5-2" />
          </g>
          <g
             id="g13115-70-9-3-6-8"
             transform="matrix(0.03574968,0,0,0.03687902,200.96645,52.204916)"
             style="fill:#ffcc00;stroke-width:32.7463">
            <path
               style="fill:#ffcc00;fill-opacity:1;stroke:#b69100;stroke-width:0;stroke-linecap:round;stroke-linejoin:round;stroke-dasharray:none;stroke-dashoffset:0;stroke-opacity:1;paint-order:fill markers stroke"
               d="m 177.88384,26.183146 0.0314,-2.075961 c 0,0 0.23405,-0.653288 0.35068,-0.980329 0.19518,-0.294624 0.3901,-0.589499 0.58475,-0.884645 0.35052,-0.308477 0.70078,-0.617207 1.05079,-0.926205 0.43474,-0.272201 0.86921,-0.544653 1.30342,-0.817375 1.57102,-0.893347 3.14166,-1.786922 4.7121,-2.68078 1.20025,-0.714999 2.40017,-1.430234 3.59987,-2.145749 0.3561,-0.181417 0.71194,-0.363091 1.06751,-0.545034 0.24855,-0.02297 0.49681,-0.04619 0.74483,-0.06968 0.29199,0.01183 0.58372,0.02341 0.87519,0.03471 0.30271,0.08947 0.60515,0.178681 0.90733,0.267624 0.71554,0.39838 1.43082,0.79648 2.14583,1.194324 2.60138,1.518922 5.20239,3.037522 7.80319,4.555884 0.30031,0.228931 0.60034,0.457589 0.90012,0.685985 0.14798,0.178771 0.29567,0.357272 0.4431,0.535511 0.12271,0.18047 0.24513,0.360667 0.36732,0.540602 0.1189,0.246121 0.23751,0.491967 0.35589,0.737553 0.037,0.237262 0.0737,0.47425 0.1102,0.710975 -0.003,2.787803 -0.006,5.575231 -0.01,8.36245 -5.19795,-1.620364 -5.33006,-1.648783 -5.31395,-1.669542 0.0161,-0.02077 -22.20304,-0.269449 -22.20304,-0.269449 z"
               id="path13070-9-7-6-9-3" />
            <path
               style="fill:#ffcc00;fill-opacity:1;stroke:#b69100;stroke-width:0;stroke-linecap:round;stroke-linejoin:round;stroke-dasharray:none;stroke-dashoffset:0;stroke-opacity:1;paint-order:fill markers stroke"
               d="m 205.11445,34.833856 -0.0163,2.076135 c 0,0 -0.22928,0.654978 -0.34352,0.982861 -0.19302,0.29604 -0.38579,0.59233 -0.57828,0.888888 -0.34826,0.311026 -0.69626,0.622303 -1.044,0.933847 -0.43275,0.275365 -0.86522,0.55098 -1.29742,0.826863 -1.56446,0.904785 -3.12854,1.809796 -4.69242,2.715088 -1.195,0.723737 -2.38967,1.447707 -3.58412,2.171956 -0.35477,0.184011 -0.70927,0.368276 -1.0635,0.552808 -0.24838,0.02478 -0.49646,0.04981 -0.74431,0.07511 -0.29206,-0.0097 -0.58387,-0.01915 -0.87542,-0.02832 -0.30335,-0.08726 -0.60643,-0.174261 -0.90925,-0.260997 -0.71843,-0.393149 -1.4366,-0.786019 -2.15449,-1.178636 -2.61239,-1.499902 -5.22441,-2.999485 -7.83622,-4.498831 -0.30198,-0.226734 -0.60367,-0.453197 -0.9051,-0.679399 -0.14928,-0.177687 -0.29827,-0.355106 -0.447,-0.532264 -0.12402,-0.17957 -0.24775,-0.358869 -0.37125,-0.537908 -0.1207,-0.245247 -0.2411,-0.490221 -0.36127,-0.734937 -0.0387,-0.236985 -0.0771,-0.473699 -0.11538,-0.710152 -0.0173,-2.78775 -0.0347,-5.575126 -0.051,-8.3623 5.20963,1.582397 5.34195,1.609851 5.32599,1.630727 -0.016,0.02089 22.20441,0.107449 22.20441,0.107449 z"
               id="path13070-6-36-3-80-8-8" />
          </g>
          <rect
             style="fill:#ffcc00;fill-opacity:1;stroke:#b69100;stroke-width:0;stroke-linecap:round;stroke-linejoin:round;stroke-dasharray:none;stroke-dashoffset:0;stroke-opacity:1;paint-order:fill markers stroke"
             id="rect13701-21-7-0"
             width="1.0535372"
             height="0.22379978"
             x="162.032"
             y="-137.32887"
             transform="rotate(52.798928)" />
          <rect
             style="fill:#ffcc00;fill-opacity:1;stroke:#b69100;stroke-width:0;stroke-linecap:round;stroke-linejoin:round;stroke-dasharray:none;stroke-dashoffset:0;stroke-opacity:1;paint-order:fill markers stroke"
             id="rect13701-6-0-2-4"
             width="1.0535372"
             height="0.22379978"
             x="-68.165794"
             y="-201.5327"
             transform="rotate(120.8131)" />
          <rect
             style="fill:#ffcc00;fill-opacity:1;stroke:#b69100;stroke-width:0;stroke-linecap:round;stroke-linejoin:round;stroke-dasharray:none;stroke-dashoffset:0;stroke-opacity:1;paint-order:fill markers stroke"
             id="rect13701-6-9-5-8-0"
             width="1.0535372"
             height="0.22379978"
             x="-65.567192"
             y="-202.9583"
             transform="rotate(120.8131)" />
          <rect
             style="fill:#ffcc00;fill-opacity:1;stroke:#b69100;stroke-width:0;stroke-linecap:round;stroke-linejoin:round;stroke-dasharray:none;stroke-dashoffset:0;stroke-opacity:1;paint-order:fill markers stroke"
             id="rect13701-6-3-1-2-9"
             width="1.0535372"
             height="0.22379978"
             x="-45.811775"
             y="-209.00507"
             transform="rotate(116.05763)" />
          <rect
             style="fill:#ffcc00;fill-opacity:1;stroke:#b69100;stroke-width:0;stroke-linecap:round;stroke-linejoin:round;stroke-dasharray:none;stroke-dashoffset:0;stroke-opacity:1;paint-order:fill markers stroke"
             id="rect13701-1-10-9-1"
             width="1.0535372"
             height="0.22379978"
             x="164.36899"
             y="-135.54021"
             transform="rotate(52.798928)" />
          <rect
             style="fill:#ffcc00;fill-opacity:1;stroke:#b69100;stroke-width:0;stroke-linecap:round;stroke-linejoin:round;stroke-dasharray:none;stroke-dashoffset:0;stroke-opacity:1;paint-order:fill markers stroke"
             id="rect13701-2-8-9-9"
             width="1.0535372"
             height="0.22379978"
             x="126.13183"
             y="-172.71693"
             transform="rotate(67.964856)" />
        </g>
      </g>
    </g>
    <g
       id="g13894-5-6-6"
       transform="matrix(0.83281179,0,0,0.84932771,-52.238885,76.068707)"
       style="fill:#ffd42a;stroke-width:1.18902">
      <g
         id="g13115-70-0-1-0-0-2"
         transform="matrix(0.00201077,0.04647471,-0.04556886,0.00197158,205.02265,27.081694)"
         style="fill:#ffd42a;stroke-width:25.8132">
        <path
           style="fill:#ffd42a;fill-opacity:1;stroke:#b69100;stroke-width:0;stroke-linecap:round;stroke-linejoin:round;stroke-dasharray:none;stroke-dashoffset:0;stroke-opacity:1;paint-order:fill markers stroke"
           d="m 177.88384,26.183146 0.0314,-2.075961 c 0,0 0.23405,-0.653288 0.35068,-0.980329 0.19518,-0.294624 0.3901,-0.589499 0.58475,-0.884645 0.35052,-0.308477 0.70078,-0.617207 1.05079,-0.926205 0.43474,-0.272201 0.86921,-0.544653 1.30342,-0.817375 1.57102,-0.893347 3.14166,-1.786922 4.7121,-2.68078 1.20025,-0.714999 2.40017,-1.430234 3.59987,-2.145749 0.3561,-0.181417 0.71194,-0.363091 1.06751,-0.545034 0.24855,-0.02297 0.49681,-0.04619 0.74483,-0.06968 0.29199,0.01183 0.58372,0.02341 0.87519,0.03471 0.30271,0.08947 0.60515,0.178681 0.90733,0.267624 0.71554,0.39838 1.43082,0.79648 2.14583,1.194324 2.60138,1.518922 5.20239,3.037522 7.80319,4.555884 0.30031,0.228931 0.60034,0.457589 0.90012,0.685985 0.14798,0.178771 0.29567,0.357272 0.4431,0.535511 0.12271,0.18047 0.24513,0.360667 0.36732,0.540602 0.1189,0.246121 0.23751,0.491967 0.35589,0.737553 0.037,0.237262 0.0737,0.47425 0.1102,0.710975 -0.003,2.787803 -0.006,5.575231 -0.01,8.36245 -5.19795,-1.620364 -5.33006,-1.648783 -5.31395,-1.669542 0.0161,-0.02077 -22.20304,-0.269449 -22.20304,-0.269449 z"
           id="path13070-9-6-9-6-2-5" />
        <path
           style="fill:#ffd42a;fill-opacity:1;stroke:#b69100;stroke-width:0;stroke-linecap:round;stroke-linejoin:round;stroke-dasharray:none;stroke-dashoffset:0;stroke-opacity:1;paint-order:fill markers stroke"
           d="m 205.11445,34.833856 -0.0163,2.076135 c 0,0 -0.22928,0.654978 -0.34352,0.982861 -0.19302,0.29604 -0.38579,0.59233 -0.57828,0.888888 -0.34826,0.311026 -0.69626,0.622303 -1.044,0.933847 -0.43275,0.275365 -0.86522,0.55098 -1.29742,0.826863 -1.56446,0.904785 -3.12854,1.809796 -4.69242,2.715088 -1.195,0.723737 -2.38967,1.447707 -3.58412,2.171956 -0.35477,0.184011 -0.70927,0.368276 -1.0635,0.552808 -0.24838,0.02478 -0.49646,0.04981 -0.74431,0.07511 -0.29206,-0.0097 -0.58387,-0.01915 -0.87542,-0.02832 -0.30335,-0.08726 -0.60643,-0.174261 -0.90925,-0.260997 -0.71843,-0.393149 -1.4366,-0.786019 -2.15449,-1.178636 -2.61239,-1.499902 -5.22441,-2.999485 -7.83622,-4.498831 -0.30198,-0.226734 -0.60367,-0.453197 -0.9051,-0.679399 -0.14928,-0.177687 -0.29827,-0.355106 -0.447,-0.532264 -0.12402,-0.17957 -0.24775,-0.358869 -0.37125,-0.537908 -0.1207,-0.245247 -0.2411,-0.490221 -0.36127,-0.734937 -0.0387,-0.236985 -0.0771,-0.473699 -0.11538,-0.710152 -0.0173,-2.78775 -0.0347,-5.575126 -0.051,-8.3623 5.20963,1.582397 5.34195,1.609851 5.32599,1.630727 -0.016,0.02089 22.20441,0.107449 22.20441,0.107449 z"
           id="path13070-6-36-2-4-4-7-4" />
      </g>
      <g
         id="g13115-70-78-6-6-4"
         transform="matrix(0.00201077,0.04647471,-0.04556886,0.00197158,206.57296,27.907802)"
         style="fill:#ffd42a;stroke-width:25.8132">
        <path
           style="fill:#ffd42a;fill-opacity:1;stroke:#b69100;stroke-width:0;stroke-linecap:round;stroke-linejoin:round;stroke-dasharray:none;stroke-dashoffset:0;stroke-opacity:1;paint-order:fill markers stroke"
           d="m 177.88384,26.183146 0.0314,-2.075961 c 0,0 0.23405,-0.653288 0.35068,-0.980329 0.19518,-0.294624 0.3901,-0.589499 0.58475,-0.884645 0.35052,-0.308477 0.70078,-0.617207 1.05079,-0.926205 0.43474,-0.272201 0.86921,-0.544653 1.30342,-0.817375 1.57102,-0.893347 3.14166,-1.786922 4.7121,-2.68078 1.20025,-0.714999 2.40017,-1.430234 3.59987,-2.145749 0.3561,-0.181417 0.71194,-0.363091 1.06751,-0.545034 0.24855,-0.02297 0.49681,-0.04619 0.74483,-0.06968 0.29199,0.01183 0.58372,0.02341 0.87519,0.03471 0.30271,0.08947 0.60515,0.178681 0.90733,0.267624 0.71554,0.39838 1.43082,0.79648 2.14583,1.194324 2.60138,1.518922 5.20239,3.037522 7.80319,4.555884 0.30031,0.228931 0.60034,0.457589 0.90012,0.685985 0.14798,0.178771 0.29567,0.357272 0.4431,0.535511 0.12271,0.18047 0.24513,0.360667 0.36732,0.540602 0.1189,0.246121 0.23751,0.491967 0.35589,0.737553 0.037,0.237262 0.0737,0.47425 0.1102,0.710975 -0.003,2.787803 -0.006,5.575231 -0.01,8.36245 -5.19795,-1.620364 -5.33006,-1.648783 -5.31395,-1.669542 0.0161,-0.02077 -22.20304,-0.269449 -22.20304,-0.269449 z"
           id="path13070-9-4-2-1-9" />
        <path
           style="fill:#ffd42a;fill-opacity:1;stroke:#b69100;stroke-width:0;stroke-linecap:round;stroke-linejoin:round;stroke-dasharray:none;stroke-dashoffset:0;stroke-opacity:1;paint-order:fill markers stroke"
           d="m 205.11445,34.833856 -0.0163,2.076135 c 0,0 -0.22928,0.654978 -0.34352,0.982861 -0.19302,0.29604 -0.38579,0.59233 -0.57828,0.888888 -0.34826,0.311026 -0.69626,0.622303 -1.044,0.933847 -0.43275,0.275365 -0.86522,0.55098 -1.29742,0.826863 -1.56446,0.904785 -3.12854,1.809796 -4.69242,2.715088 -1.195,0.723737 -2.38967,1.447707 -3.58412,2.171956 -0.35477,0.184011 -0.70927,0.368276 -1.0635,0.552808 -0.24838,0.02478 -0.49646,0.04981 -0.74431,0.07511 -0.29206,-0.0097 -0.58387,-0.01915 -0.87542,-0.02832 -0.30335,-0.08726 -0.60643,-0.174261 -0.90925,-0.260997 -0.71843,-0.393149 -1.4366,-0.786019 -2.15449,-1.178636 -2.61239,-1.499902 -5.22441,-2.999485 -7.83622,-4.498831 -0.30198,-0.226734 -0.60367,-0.453197 -0.9051,-0.679399 -0.14928,-0.177687 -0.29827,-0.355106 -0.447,-0.532264 -0.12402,-0.17957 -0.24775,-0.358869 -0.37125,-0.537908 -0.1207,-0.245247 -0.2411,-0.490221 -0.36127,-0.734937 -0.0387,-0.236985 -0.0771,-0.473699 -0.11538,-0.710152 -0.0173,-2.78775 -0.0347,-5.575126 -0.051,-8.3623 5.20963,1.582397 5.34195,1.609851 5.32599,1.630727 -0.016,0.02089 22.20441,0.107449 22.20441,0.107449 z"
           id="path13070-6-36-5-5-3-9" />
      </g>
      <g
         id="g13115-70-6-0-8-2-3"
         transform="matrix(0.00201077,0.04647471,-0.04556886,0.00197158,203.60704,28.008249)"
         style="fill:#ffd42a;stroke-width:25.8132">
        <path
           style="fill:#ffd42a;fill-opacity:1;stroke:#b69100;stroke-width:0;stroke-linecap:round;stroke-linejoin:round;stroke-dasharray:none;stroke-dashoffset:0;stroke-opacity:1;paint-order:fill markers stroke"
           d="m 177.88384,26.183146 0.0314,-2.075961 c 0,0 0.23405,-0.653288 0.35068,-0.980329 0.19518,-0.294624 0.3901,-0.589499 0.58475,-0.884645 0.35052,-0.308477 0.70078,-0.617207 1.05079,-0.926205 0.43474,-0.272201 0.86921,-0.544653 1.30342,-0.817375 1.57102,-0.893347 3.14166,-1.786922 4.7121,-2.68078 1.20025,-0.714999 2.40017,-1.430234 3.59987,-2.145749 0.3561,-0.181417 0.71194,-0.363091 1.06751,-0.545034 0.24855,-0.02297 0.49681,-0.04619 0.74483,-0.06968 0.29199,0.01183 0.58372,0.02341 0.87519,0.03471 0.30271,0.08947 0.60515,0.178681 0.90733,0.267624 0.71554,0.39838 1.43082,0.79648 2.14583,1.194324 2.60138,1.518922 5.20239,3.037522 7.80319,4.555884 0.30031,0.228931 0.60034,0.457589 0.90012,0.685985 0.14798,0.178771 0.29567,0.357272 0.4431,0.535511 0.12271,0.18047 0.24513,0.360667 0.36732,0.540602 0.1189,0.246121 0.23751,0.491967 0.35589,0.737553 0.037,0.237262 0.0737,0.47425 0.1102,0.710975 -0.003,2.787803 -0.006,5.575231 -0.01,8.36245 -5.19795,-1.620364 -5.33006,-1.648783 -5.31395,-1.669542 0.0161,-0.02077 -22.20304,-0.269449 -22.20304,-0.269449 z"
           id="path13070-9-1-3-62-1-6" />
        <path
           style="fill:#ffd42a;fill-opacity:1;stroke:#b69100;stroke-width:0;stroke-linecap:round;stroke-linejoin:round;stroke-dasharray:none;stroke-dashoffset:0;stroke-opacity:1;paint-order:fill markers stroke"
           d="m 205.11445,34.833856 -0.0163,2.076135 c 0,0 -0.22928,0.654978 -0.34352,0.982861 -0.19302,0.29604 -0.38579,0.59233 -0.57828,0.888888 -0.34826,0.311026 -0.69626,0.622303 -1.044,0.933847 -0.43275,0.275365 -0.86522,0.55098 -1.29742,0.826863 -1.56446,0.904785 -3.12854,1.809796 -4.69242,2.715088 -1.195,0.723737 -2.38967,1.447707 -3.58412,2.171956 -0.35477,0.184011 -0.70927,0.368276 -1.0635,0.552808 -0.24838,0.02478 -0.49646,0.04981 -0.74431,0.07511 -0.29206,-0.0097 -0.58387,-0.01915 -0.87542,-0.02832 -0.30335,-0.08726 -0.60643,-0.174261 -0.90925,-0.260997 -0.71843,-0.393149 -1.4366,-0.786019 -2.15449,-1.178636 -2.61239,-1.499902 -5.22441,-2.999485 -7.83622,-4.498831 -0.30198,-0.226734 -0.60367,-0.453197 -0.9051,-0.679399 -0.14928,-0.177687 -0.29827,-0.355106 -0.447,-0.532264 -0.12402,-0.17957 -0.24775,-0.358869 -0.37125,-0.537908 -0.1207,-0.245247 -0.2411,-0.490221 -0.36127,-0.734937 -0.0387,-0.236985 -0.0771,-0.473699 -0.11538,-0.710152 -0.0173,-2.78775 -0.0347,-5.575126 -0.051,-8.3623 5.20963,1.582397 5.34195,1.609851 5.32599,1.630727 -0.016,0.02089 22.20441,0.107449 22.20441,0.107449 z"
           id="path13070-6-36-8-6-8-5-0" />
      </g>
      <path
         id="rect13701-10-4-9-5"
         style="fill:#ffd42a;fill-opacity:1;stroke:#b69100;stroke-width:0;stroke-linecap:round;stroke-linejoin:round;stroke-dasharray:none;stroke-dashoffset:0;stroke-opacity:1;paint-order:fill markers stroke"
         d="m 203.65704,36.026158 -0.8108,0.672823 0.14263,0.172086 0.8108,-0.672312 z m 0.68989,0.06718 -0.10646,0.196885 0.92759,0.500237 0.10593,-0.197409 z" />
    </g>
    <rect
       style="fill:#ffd42a;fill-opacity:1;stroke:#b69100;stroke-width:0;stroke-linecap:round;stroke-linejoin:round;stroke-dasharray:none;stroke-dashoffset:0;stroke-opacity:1;paint-order:fill markers stroke"
       id="rect14029-7-9-0"
       width="1.0178105"
       height="0.18717282"
       x="101.43504"
       y="135.36789"
       transform="matrix(0.96578018,-0.25936198,0.15642632,0.98768963,0,0)" />
    <g
       id="g13115-70-6-0-6-9-2-1-2"
       transform="matrix(-0.01799293,0.01673951,0.0170683,0.0176137,118.22535,103.11646)"
       style="fill:#ffd42a;stroke-width:40.7354">
      <path
         style="fill:#ffd42a;fill-opacity:1;stroke:#b69100;stroke-width:0;stroke-linecap:round;stroke-linejoin:round;stroke-dasharray:none;stroke-dashoffset:0;stroke-opacity:1;paint-order:fill markers stroke"
         d="m 177.88384,26.183146 0.0314,-2.075961 c 0,0 0.23405,-0.653288 0.35068,-0.980329 0.19518,-0.294624 0.3901,-0.589499 0.58475,-0.884645 0.35052,-0.308477 0.70078,-0.617207 1.05079,-0.926205 0.43474,-0.272201 0.86921,-0.544653 1.30342,-0.817375 1.57102,-0.893347 3.14166,-1.786922 4.7121,-2.68078 1.20025,-0.714999 2.40017,-1.430234 3.59987,-2.145749 0.3561,-0.181417 0.71194,-0.363091 1.06751,-0.545034 0.24855,-0.02297 0.49681,-0.04619 0.74483,-0.06968 0.29199,0.01183 0.58372,0.02341 0.87519,0.03471 0.30271,0.08947 0.60515,0.178681 0.90733,0.267624 0.71554,0.39838 1.43082,0.79648 2.14583,1.194324 2.60138,1.518922 5.20239,3.037522 7.80319,4.555884 0.30031,0.228931 0.60034,0.457589 0.90012,0.685985 0.14798,0.178771 0.29567,0.357272 0.4431,0.535511 0.12271,0.18047 0.24513,0.360667 0.36732,0.540602 0.1189,0.246121 0.23751,0.491967 0.35589,0.737553 0.037,0.237262 0.0737,0.47425 0.1102,0.710975 -0.003,2.787803 -0.006,5.575231 -0.01,8.36245 -5.19795,-1.620364 -5.33006,-1.648783 -5.31395,-1.669542 0.0161,-0.02077 -22.20304,-0.269449 -22.20304,-0.269449 z"
         id="path13070-9-1-3-6-0-4-4-9" />
      <path
         style="fill:#ffd42a;fill-opacity:1;stroke:#b69100;stroke-width:0;stroke-linecap:round;stroke-linejoin:round;stroke-dasharray:none;stroke-dashoffset:0;stroke-opacity:1;paint-order:fill markers stroke"
         d="m 205.11445,34.833856 -0.0163,2.076135 c 0,0 -0.22928,0.654978 -0.34352,0.982861 -0.19302,0.29604 -0.38579,0.59233 -0.57828,0.888888 -0.34826,0.311026 -0.69626,0.622303 -1.044,0.933847 -0.43275,0.275365 -0.86522,0.55098 -1.29742,0.826863 -1.56446,0.904785 -3.12854,1.809796 -4.69242,2.715088 -1.195,0.723737 -2.38967,1.447707 -3.58412,2.171956 -0.35477,0.184011 -0.70927,0.368276 -1.0635,0.552808 -0.24838,0.02478 -0.49646,0.04981 -0.74431,0.07511 -0.29206,-0.0097 -0.58387,-0.01915 -0.87542,-0.02832 -0.30335,-0.08726 -0.60643,-0.174261 -0.90925,-0.260997 -0.71843,-0.393149 -1.4366,-0.786019 -2.15449,-1.178636 -2.61239,-1.499902 -5.22441,-2.999485 -7.83622,-4.498831 -0.30198,-0.226734 -0.60367,-0.453197 -0.9051,-0.679399 -0.14928,-0.177687 -0.29827,-0.355106 -0.447,-0.532264 -0.12402,-0.17957 -0.24775,-0.358869 -0.37125,-0.537908 -0.1207,-0.245247 -0.2411,-0.490221 -0.36127,-0.734937 -0.0387,-0.236985 -0.0771,-0.473699 -0.11538,-0.710152 -0.0173,-2.78775 -0.0347,-5.575126 -0.051,-8.3623 5.20963,1.582397 5.34195,1.609851 5.32599,1.630727 -0.016,0.02089 22.20441,0.107449 22.20441,0.107449 z"
         id="path13070-6-36-8-6-4-9-0-9-4" />
    </g>
    <rect
       style="fill:#ffd42a;fill-opacity:1;stroke:#b69100;stroke-width:0;stroke-linecap:round;stroke-linejoin:round;stroke-dasharray:none;stroke-dashoffset:0;stroke-opacity:1;paint-order:fill markers stroke"
       id="rect14029-5-6-1-3"
       width="1.2205533"
       height="0.22048558"
       x="-156.05649"
       y="-45.749214"
       transform="matrix(-0.89838262,-0.43921369,0.52445393,-0.85143883,0,0)" />
    <path
       style="fill:#ffd42a;fill-opacity:1;stroke:#d8ae00;stroke-width:0.3;stroke-linecap:round;stroke-linejoin:round;stroke-dasharray:none;stroke-dashoffset:0;stroke-opacity:1;paint-order:fill markers stroke"
       d="m 102.97377,108.1672 c 0.40196,0.4026 1.20535,1.20729 2.00901,2.01223 0,0 0.0206,3.2276 0.0206,3.2276 -0.15646,-0.0245 -0.31259,-0.0489 -0.50938,-0.11851 -0.19679,-0.0696 -0.43391,-0.18451 -0.67799,-0.36263 -0.24408,-0.17813 -0.49502,-0.41956 -0.69995,-0.66821 -0.20492,-0.24865 -0.36372,-0.50457 -0.45467,-0.65776 -0.0909,-0.15318 -0.11396,-0.2036 -0.11764,-0.8257 -0.004,-0.62209 0.0122,-1.81574 0.0201,-2.41271 0.008,-0.59696 0.008,-0.59691 0.40994,-0.19431 z"
       id="path13210-2-7-7-7" />
  </g>
</svg>
